<svg xmlns="http://www.w3.org/2000/svg" viewBox="0 0 1200 760" role="img" aria-labelledby="title desc">
  <title id="title">UnitaryHack 2026 profile summary for DennisWayo</title>
  <desc id="desc">A screenshot-style card showing DennisWayo, three completed bounties, 175 dollars claimed, and completed PennyLane, Qibo, and Qiskit issues.</desc>
  <defs>
    <linearGradient id="pageBg" x1="0" y1="0" x2="1" y2="1">
      <stop offset="0%" stop-color="#f7f7f2"/>
      <stop offset="44%" stop-color="#f0f8f4"/>
      <stop offset="100%" stop-color="#f4f2ff"/>
    </linearGradient>
    <linearGradient id="accentLine" x1="0" y1="0" x2="1" y2="0">
      <stop offset="0%" stop-color="#20c997"/>
      <stop offset="48%" stop-color="#111111"/>
      <stop offset="100%" stop-color="#7c3aed"/>
    </linearGradient>
    <filter id="softShadow" x="-8%" y="-10%" width="116%" height="124%">
      <feDropShadow dx="0" dy="26" stdDeviation="24" flood-color="#0f172a" flood-opacity="0.16"/>
    </filter>
    <style>
      .mono {
        font-family: ui-monospace, SFMono-Regular, Menlo, Consolas, "Liberation Mono", monospace;
      }

      .sans {
        font-family: Inter, ui-sans-serif, system-ui, -apple-system, BlinkMacSystemFont, "Segoe UI", sans-serif;
      }

      .small {
        font-size: 26px;
        fill: #52525b;
      }

      .label {
        font-size: 24px;
        font-weight: 700;
        letter-spacing: 0.08em;
        text-transform: uppercase;
        fill: #52525b;
      }

      .title {
        font-size: 68px;
        font-weight: 800;
        fill: #111111;
      }

      .metric {
        font-size: 58px;
        font-weight: 800;
        fill: #111111;
      }

      .metric-caption {
        font-size: 22px;
        font-weight: 700;
        fill: #52525b;
      }

      .issue-title {
        font-size: 24px;
        font-weight: 800;
        fill: #18181b;
      }

      .issue-body {
        font-size: 19px;
        fill: #52525b;
      }
    </style>
  </defs>

  <rect width="1200" height="760" rx="0" fill="#101010"/>
  <rect x="34" y="34" width="1132" height="692" rx="36" fill="url(#pageBg)" filter="url(#softShadow)"/>

  <g transform="translate(74 74)">
    <rect width="1052" height="612" rx="26" fill="#ffffff" stroke="#d8d8d8" stroke-width="2"/>
    <rect width="1052" height="76" rx="26" fill="#121212"/>
    <path d="M0 50H1052" stroke="#121212" stroke-width="52"/>
    <circle cx="42" cy="38" r="11" fill="#ff5f56"/>
    <circle cx="78" cy="38" r="11" fill="#ffbd2e"/>
    <circle cx="114" cy="38" r="11" fill="#27c93f"/>
    <rect x="170" y="23" width="708" height="30" rx="15" fill="#2a2a2a"/>
    <text x="196" y="45" class="mono" font-size="18" fill="#e4e4e7">unitaryhack.dev/hackers/denniswayo/</text>
    <rect x="900" y="20" width="108" height="36" rx="18" fill="#20c997"/>
    <text x="924" y="44" class="sans" font-size="18" font-weight="800" fill="#111111">2026</text>

    <g transform="translate(54 116)">
      <g>
        <rect x="0" y="0" width="148" height="92" rx="18" fill="#111111"/>
        <text x="25" y="58" class="mono" font-size="44" font-weight="900" fill="#ffffff">H</text>
        <text x="58" y="58" class="mono" font-size="32" font-weight="900" fill="#20c997">&lt;\&gt;</text>
        <text x="105" y="58" class="mono" font-size="44" font-weight="900" fill="#ffffff">K</text>
      </g>
      <text x="0" y="144" class="label sans">unitaryHACK hacker profile</text>
      <text x="0" y="220" class="title mono">DennisWayo</text>
      <text x="0" y="266" class="small sans">Quantum software OSS contributions</text>
      <rect x="0" y="316" width="410" height="8" rx="4" fill="url(#accentLine)"/>
    </g>

    <g transform="translate(574 130)">
      <rect x="0" y="0" width="192" height="150" rx="24" fill="#f4f4f5" stroke="#dedee3"/>
      <text x="34" y="67" class="metric sans">3</text>
      <text x="34" y="104" class="metric-caption sans">
        <tspan x="34" dy="0">issues</tspan>
        <tspan x="34" dy="26">closed</tspan>
      </text>

      <rect x="222" y="0" width="192" height="150" rx="24" fill="#f4f4f5" stroke="#dedee3"/>
      <text x="254" y="67" class="metric sans">$175</text>
      <text x="254" y="106" class="metric-caption sans">claimed</text>

      <rect x="0" y="174" width="414" height="66" rx="20" fill="#ecfdf5" stroke="#b7efd8"/>
      <text x="32" y="201" class="issue-title sans">PennyLane</text>
      <text x="32" y="225" class="issue-body sans">Docs tests for shadows module</text>

      <rect x="0" y="258" width="414" height="66" rx="20" fill="#eef6ff" stroke="#cfe4ff"/>
      <text x="32" y="285" class="issue-title sans">Qibo/Qibolab</text>
      <text x="32" y="309" class="issue-body sans">Dynamiqs simulation engine</text>

      <rect x="0" y="342" width="414" height="66" rx="20" fill="#f5f3ff" stroke="#ddd6fe"/>
      <text x="32" y="369" class="issue-title sans">Qiskit</text>
      <text x="32" y="393" class="issue-body sans">Label support for gate helpers</text>
    </g>

    <g transform="translate(54 548)">
      <rect x="0" y="0" width="944" height="2" fill="#e4e4e7"/>
      <text x="0" y="43" class="small sans">Bounties completed across PennyLane, Qibo, and Qiskit.</text>
    </g>
  </g>
</svg>
